<?xml version="1.0" encoding="UTF-8" standalone="no"?>
<!-- Created with Inkscape (http://www.inkscape.org/) -->

<svg
   version="1.1"
   id="svg1"
   width="349"
   height="349"
   viewBox="0 0 349 349"
   sodipodi:docname="sav_logo.svg"
   inkscape:version="1.3.2 (091e20e, 2023-11-25)"
   xmlns:inkscape="http://www.inkscape.org/namespaces/inkscape"
   xmlns:sodipodi="http://sodipodi.sourceforge.net/DTD/sodipodi-0.dtd"
   xmlns="http://www.w3.org/2000/svg"
   xmlns:svg="http://www.w3.org/2000/svg">
  <defs
     id="defs1" />
  <sodipodi:namedview
     id="namedview1"
     pagecolor="#ffffff"
     bordercolor="#000000"
     borderopacity="0.25"
     inkscape:showpageshadow="2"
     inkscape:pageopacity="0.0"
     inkscape:pagecheckerboard="0"
     inkscape:deskcolor="#d1d1d1"
     inkscape:zoom="1.1326073"
     inkscape:cx="160.24972"
     inkscape:cy="163.33994"
     inkscape:window-width="1400"
     inkscape:window-height="847"
     inkscape:window-x="47"
     inkscape:window-y="25"
     inkscape:window-maximized="1"
     inkscape:current-layer="g1" />
  <g
     inkscape:groupmode="layer"
     inkscape:label="Image"
     id="g1">
    <path
       style="fill:#000000"
       d="M 144.17874,346.49884 C 121.14575,342.12871 98.244098,333.11651 80.238642,321.33728 72.562155,316.3153 58.811206,305.82066 59.316695,305.36977 59.417513,305.27985 62.875,306.12512 67,307.24815 c 5.755535,1.56695 10.640038,2.05319 21,2.09051 16.23671,0.0585 25.09757,-1.68878 36.5,-7.1974 21.87269,-10.56689 32.52771,-30.0347 32.48264,-59.3491 -0.0301,-19.54933 -4.95943,-35.73717 -15.24957,-50.07901 C 138.4054,188.07523 124.18199,172.25245 115,162.97404 112.525,160.47305 105.325,152.84696 99,146.02718 92.675,139.2074 86.15,132.26699 84.5,130.60405 77.020538,123.06594 69.402358,112.89008 66.180594,106.1342 62.828355,99.104731 62.666022,98.260021 62.625331,87.634204 62.539741,65.283531 70.176178,55.391565 88.393515,54.255025 112.61187,52.744095 121,63.954396 121,97.831913 V 110 l 15.64173,0 15.64173,0 -0.56274,-20.75 C 151.41121,77.8375 150.63629,65.8 149.99867,62.5 147.40915,49.097983 138.15074,36.350613 126.96166,30.781663 118.90891,26.773706 110.87631,24.965125 98.139244,24.292143 L 86.778488,23.691881 98.639244,17.959141 C 113.59142,10.732204 125.05077,6.8323233 141.51678,3.3669259 153.00933,0.94823053 156.73889,0.62740561 174,0.57264377 c 16.61406,-0.052709 21.27596,0.28781392 31.5,2.30088243 20.98929,4.1326991 44.36006,13.0084918 60.02226,22.7953628 14.71448,9.194668 34.70746,26.757839 44.20326,38.831111 7.47727,9.50685 10.93313,14.491516 15.36811,22.166646 28.86498,49.953434 31.56804,110.815864 7.19607,162.027554 -6.30146,13.24098 -9.99694,19.40393 -18.12712,30.23062 C 286.94407,315.17076 247.23495,339.45326 203,346.9018 c -17.77446,2.99297 -41.78991,2.82845 -58.82126,-0.40296 z M 78.5,279.1097 C 67.149333,276.04189 61.35947,270.07189 57.542347,257.5 56.119851,252.81494 55.619498,246.95251 55.259257,230.75 L 54.797909,210 H 38.398954 22 l 0.02011,19.25 c 0.01106,10.5875 0.440401,22.15816 0.954094,25.71257 0.513693,3.55442 0.821712,6.57485 0.684486,6.71208 C 23.205894,262.12744 13.141363,241.45547 11.121064,235.92309 7.9287041,227.18114 5.2706856,217.29549 2.8065764,205 0.85761695,195.27502 0.50892266,190.49018 0.54745957,174 0.58796522,156.66738 0.8968741,153.06946 3.3267225,141.62938 4.8302532,134.55054 7.4088058,124.66708 9.0568395,119.66614 12.123481,110.36045 21.212808,90.887566 26.050104,83.259942 l 2.70236,-4.261179 0.516986,14.750618 C 30.352829,124.66028 34.527045,131.4242 84.04008,182.5 c 25.08604,25.87783 27.94954,29.11162 31.9197,36.0474 13.43979,23.47904 8.86821,48.5401 -10.59131,58.06075 -4.47696,2.19038 -7.13811,2.73355 -14.66881,2.99409 C 85.639847,279.7773 80.15,279.55566 78.5,279.1097 Z"
       id="path1" />
  </g>
</svg>
