<?xml version="1.0" encoding="UTF-8" standalone="no"?>
<!-- Created with Inkscape (http://www.inkscape.org/) -->

<svg
   version="1.1"
   id="svg1"
   width="976"
   height="349"
   viewBox="0 0 976 349"
   sodipodi:docname="savanna_logo.svg"
   inkscape:version="1.3.2 (091e20e, 2023-11-25)"
   xmlns:inkscape="http://www.inkscape.org/namespaces/inkscape"
   xmlns:sodipodi="http://sodipodi.sourceforge.net/DTD/sodipodi-0.dtd"
   xmlns="http://www.w3.org/2000/svg"
   xmlns:svg="http://www.w3.org/2000/svg">
  <defs
     id="defs1" />
  <sodipodi:namedview
     id="namedview1"
     pagecolor="#ffffff"
     bordercolor="#000000"
     borderopacity="0.25"
     inkscape:showpageshadow="2"
     inkscape:pageopacity="0.0"
     inkscape:pagecheckerboard="true"
     inkscape:deskcolor="#d1d1d1"
     inkscape:zoom="0.67621777"
     inkscape:cx="487.26907"
     inkscape:cy="174.5"
     inkscape:window-width="1400"
     inkscape:window-height="847"
     inkscape:window-x="47"
     inkscape:window-y="25"
     inkscape:window-maximized="1"
     inkscape:current-layer="g1" />
  <g
     inkscape:groupmode="layer"
     inkscape:label="Image"
     id="g1">
    <path
       style="fill:#000000"
       d="m 143.79531,346.4838 c -22.9319,-4.44657 -44.996199,-13.15052 -63.3486,-24.98981 -7.650548,-4.93544 -21.675406,-15.63774 -21.130015,-16.12422 0.100818,-0.0899 3.558305,0.75535 7.683305,1.87838 9.907149,2.69723 31.023582,2.92276 42,0.44856 16.71331,-3.76735 32.3841,-14.51293 39.31542,-26.95889 5.79847,-10.41181 7.85019,-18.53307 8.42644,-33.35423 0.86287,-22.19259 -3.74494,-38.97803 -15.0077,-54.67044 C 138.40485,188.07442 124.17761,172.24802 115,162.97404 112.525,160.47305 105.325,152.84696 99,146.02718 92.675,139.2074 86.15,132.26699 84.5,130.60405 77.020538,123.06594 69.402358,112.89008 66.180594,106.1342 62.828355,99.104731 62.666022,98.260021 62.625331,87.634204 62.539741,65.283531 70.176178,55.391565 88.393515,54.255025 112.61187,52.744095 121,63.954396 121,97.831913 V 110 l 15.64173,0 15.64173,0 -0.56274,-20.75 C 151.41121,77.8375 150.63629,65.8 149.99867,62.5 147.40915,49.097983 138.15074,36.350613 126.96166,30.781663 118.90891,26.773706 110.87631,24.965125 98.139244,24.292143 L 86.778488,23.691881 98.639244,17.959141 C 113.59142,10.732204 125.05077,6.8323233 141.51678,3.3669259 153.00933,0.94823053 156.73889,0.62740561 174,0.57264377 190.61406,0.51993473 195.27596,0.86045769 205.5,2.8735262 241.72188,10.005456 272.2833,26.04492 297.03973,50.916064 302.28658,56.187229 307.99519,62.3 309.72552,64.5 c 7.47727,9.50685 10.93313,14.491516 15.36811,22.166646 28.86498,49.953434 31.56804,110.815864 7.19607,162.027554 -6.30146,13.24098 -9.99694,19.40393 -18.12712,30.23062 -21.61472,28.78356 -50.14405,49.53861 -83.87237,61.01703 -19.35105,6.58555 -29.5752,8.24574 -53.29021,8.65321 -18.55409,0.31879 -21.70596,0.11839 -33.20469,-2.11126 z M 78.5,279.1097 C 67.149333,276.04189 61.35947,270.07189 57.542347,257.5 56.119851,252.81494 55.619498,246.95251 55.259257,230.75 L 54.797909,210 H 38.398954 22 l 0.02011,19.25 c 0.01106,10.5875 0.440401,22.15816 0.954094,25.71257 0.513693,3.55442 0.821712,6.57485 0.684486,6.71208 C 23.205894,262.12744 13.141363,241.45547 11.121064,235.92309 7.9287041,227.18114 5.2706856,217.29549 2.8065764,205 0.85761695,195.27502 0.50892266,190.49018 0.54745957,174 0.58796522,156.66738 0.8968741,153.06946 3.3267225,141.62938 4.8302532,134.55054 7.4088058,124.66708 9.0568395,119.66614 12.123481,110.36045 21.212808,90.887566 26.050104,83.259942 l 2.70236,-4.261179 0.516986,14.750618 c 0.571949,16.318819 2.2792,23.884449 7.661622,33.952279 6.442894,12.05143 11.732348,18.15383 50.542932,58.31098 23.117176,23.91924 26.240236,27.57823 29.927826,35.06352 11.61999,23.58701 6.68191,46.37546 -12.03336,55.53199 -4.47696,2.19038 -7.13811,2.73355 -14.66881,2.99409 C 85.639847,279.7773 80.15,279.55566 78.5,279.1097 Z M 561,264.24845 c -6.42246,-3.20838 -7.21062,-6.46639 -7.17386,-29.65436 0.0343,-21.60705 0.64172,-25.08334 5.07332,-29.03299 1.4504,-1.29267 4.10934,-2.07878 7.97768,-2.35859 C 577.25522,202.45182 582,207.08444 582,217.96788 V 223 h -3.5 -3.5 v -5.34501 c 0,-3.90817 -0.4916,-5.78991 -1.82874,-7 -2.56747,-2.32353 -7.46029,-2.09809 -9.76627,0.45 -1.74888,1.93249 -1.90499,3.86548 -1.90499,23.58835 0,21.37126 0.0123,21.49334 2.36078,23.39501 5.676,4.59615 10.67122,1.17042 11.7124,-8.03236 0.65371,-5.77812 0.81167,-6.05599 3.44249,-6.05599 2.33899,0 2.83512,0.49309 3.27007,3.25 0.69385,4.398 -0.96734,11.73796 -3.29465,14.55741 -3.51142,4.25395 -12.04446,5.41171 -17.99109,2.44104 z m -151,-0.70698 c 0,-0.8022 2.42255,-12.6147 5.38344,-26.25 2.96089,-13.63531 5.70045,-26.70397 6.0879,-29.04147 0.68883,-4.1557 0.79125,-4.25 4.61656,-4.25 2.15165,0 3.9121,0.27516 3.9121,0.61146 0,0.64283 5.37138,25.0261 7.02472,31.88854 1.88244,7.81339 5.97528,26.78324 5.97528,27.69475 0,0.50929 -1.68024,0.78632 -3.73387,0.61562 -3.67586,-0.30555 -3.74996,-0.39584 -4.76844,-5.81037 l -1.03456,-5.5 -7.20167,-0.29321 c -8.00372,-0.32586 -7.29948,-0.97327 -8.74916,8.04321 -0.56166,3.49333 -0.83938,3.75 -4.05761,3.75 C 411.09417,265 410,264.53805 410,263.54147 Z M 431.59755,243.75 c -0.35884,-1.7875 -1.62793,-8.57732 -2.82019,-15.08849 -2.46149,-13.44266 -2.64489,-13.33138 -5.71315,3.46659 C 420.1784,247.92717 419.95641,247 426.625,247 h 5.625 z M 482,234.5 V 204 h 10.9288 l 10.9288,0 3.5712,3.36808 c 3.63996,3.43292 4.17046,5.52862 3.57608,14.12704 -0.25525,3.69261 -2.6106,8.41635 -4.5718,9.16893 -1.12218,0.43063 -0.6448,1.46608 2.05229,4.45143 3.42186,3.78759 3.51453,4.10797 3.51089,12.1374 C 511.98977,261.57649 508.04214,265 491.53212,265 H 482 Z m 20.90838,22.02019 c 1.17012,-1.17012 1.59162,-3.56097 1.59162,-9.02813 0,-9.20244 -1.55752,-11.2378 -9.30137,-12.15494 L 490,234.72142 v 12.27919 12.2792 l 5.65838,-0.584 c 3.14212,-0.3243 6.36616,-1.29178 7.25,-2.17562 z m -2.59264,-28.66989 c 3.17809,-1.67282 3.65193,-2.77431 3.66895,-8.52887 0.0217,-7.33285 -3.10366,-9.90862 -11.09632,-9.14511 L 489.5,210.5 489.35785,219 c -0.0782,4.675 0.0609,8.8375 0.30902,9.25 0.70079,1.16496 8.21187,0.88303 10.64887,-0.3997 z M 424.5,164.20935 c -8.48421,-3.00913 -11.84787,-8.51492 -11.94009,-19.54409 L 412.5,137.5 l 4.25,-0.3075 4.25,-0.3075 v 5.58962 c 0,10.48137 3.74323,15.22554 11.22177,14.22246 6.03204,-0.80907 7.78334,-2.97877 7.75041,-9.60207 -0.0321,-6.46278 -1.57047,-8.92554 -12.8435,-20.56149 -8.76108,-9.04312 -11.95492,-13.98666 -12.74086,-19.72073 -0.86201,-6.28904 1.12666,-13.97504 4.43341,-17.134715 5.48578,-5.241778 17.94681,-6.008177 23.72957,-1.459456 C 446.25988,91.136182 448,95.846136 448,102.96788 V 109 h -4 c -3.97417,0 -4,-0.0249 -4,-3.85078 C 440,97.186686 437.12169,93 431.64753,93 c -3.83805,0 -5.59349,0.99482 -7.18452,4.071521 -3.31611,6.412669 -0.48676,12.910399 10.6243,24.399109 10.01327,10.35361 12.56598,14.02007 13.89729,19.96065 1.96675,8.77603 -1.07278,16.96401 -7.74363,20.85999 -3.42609,2.00095 -13.31334,3.13377 -16.74097,1.91808 z m 71.5,-1.51586 c 0,-0.71858 3.6,-18.04683 8,-38.50722 4.4,-20.46039 8,-37.447119 8,-37.748282 0,-0.301164 2.13019,-0.410414 4.73376,-0.242779 l 4.73375,0.304791 8.22983,37 c 4.5264,20.35 8.24621,37.7875 8.26624,38.75 0.0299,1.43819 -0.85447,1.75 -4.96358,1.75 -2.75,0 -4.91184,-0.3375 -4.8041,-0.75 0.36748,-1.40685 -1.27707,-11.76331 -2.07227,-13.04996 -0.572,-0.92552 -3.26374,-1.2016 -9.6659,-0.99139 L 507.5846,149.5 506.90535,153 c -0.37358,1.925 -0.97551,5.1875 -1.33761,7.25 -0.64495,3.6736 -0.74912,3.75 -5.11305,3.75 C 497.45484,164 496,163.57331 496,162.69349 Z m 28,-23.05653 c 0,-3.16746 -6.21779,-34.21416 -7.01585,-35.0316 -1.0275,-1.05245 -1.16006,-0.52451 -4.4712,17.80741 C 508.91719,142.32044 508.59843,141 517,141 c 5.24295,0 7,-0.34213 7,-1.36304 z M 594.53294,162.75 c -0.22236,-0.6875 -1.81496,-9.125 -3.53911,-18.75 -1.72415,-9.625 -4.6781,-25.59552 -6.56433,-35.49004 C 579.94979,85.010864 579.90275,86 585.5,86 c 2.475,0 4.5,0.42902 4.5,0.953379 0,1.710478 10.03613,64.416091 10.36206,64.742021 0.65554,0.65553 2.89232,-11.45058 7.00233,-37.89857 L 611.6063,86.5 l 4.8249,-0.310021 c 4.80448,-0.308708 4.82259,-0.298125 4.27951,2.5 -0.29996,1.545512 -3.58967,19.122521 -7.31047,39.060021 L 606.63516,164 h -5.84897 c -3.79688,0 -5.9908,-0.43856 -6.25325,-1.25 z m 68.81643,-0.9398 c 0.61427,-2.31076 1.44698,-6.15979 10.23521,-47.3102 2.58412,-12.1 4.98853,-23.35 5.34313,-25 0.59181,-2.753705 1.02907,-3.024914 5.32605,-3.303465 4.18855,-0.271523 4.7356,-0.061 5.19714,2 0.28371,1.266906 3.00536,13.778465 6.04811,27.803465 3.04275,14.025 6.65023,30.25662 8.01663,36.07026 1.3664,5.81364 2.48436,10.87614 2.48436,11.25 0,0.37386 -2.22065,0.67974 -4.93478,0.67974 h -4.93478 L 694.87022,156.5 693.61,149 h -9.25969 -9.25968 l -0.65837,3.75 c -2.02426,11.53 -1.52136,10.71856 -6.85461,11.0602 -4.62806,0.29646 -4.81521,0.20794 -4.22828,-2 z m 27.9831,-21.5602 c 0.35564,-0.59207 -3.21316,-21.15862 -5.89983,-34 -0.7874,-3.76349 -2.27088,-2.52357 -2.99106,2.5 -0.37453,2.6125 -1.74965,10.375 -3.05582,17.25 -1.30618,6.875 -2.37732,13.0625 -2.38031,13.75 -0.006,1.38306 13.51319,1.85487 14.32702,0.5 z M 755,125 V 86 h 6.34087 l 6.34087,0 1.2453,5.75 c 1.06569,4.920663 4.12144,18.10007 11.71983,50.54734 0.87547,3.73854 1.81933,6.5698 2.09745,6.29167 0.69896,-0.69896 0.36095,-49.757074 -0.39162,-56.83901 L 781.74167,86 H 786.37083 791 v 39 39 h -6.02144 c -5.28539,0 -6.14207,-0.27503 -7.00827,-2.25 -0.54276,-1.2375 -3.89676,-15.25115 -7.45334,-31.14144 -3.55657,-15.89029 -6.76284,-29.16529 -7.12504,-29.5 -0.3622,-0.33471 -0.38818,13.67894 -0.0578,31.14144 l 0.6008,31.75 H 759.46748 755 Z m 92.98765,38.5 c -0.007,-0.275 -0.0194,-17.7125 -0.028,-38.75 l -0.0157,-38.25 6.52804,-0.29569 C 858.06238,86.041681 861,86.19996 861,86.556043 c 0,0.356082 2.52021,11.514143 5.60047,24.795687 3.08026,13.28155 6.22038,27.02589 6.97805,30.54299 1.39194,6.46138 2.30774,8.61717 2.55819,6.02195 0.0752,-0.77917 0.0234,-15.02917 -0.11502,-31.66667 L 875.76996,86 h 4.09597 c 3.41568,0 4.18864,0.373695 4.65393,2.25 0.30687,1.2375 0.42795,18.675 0.26905,38.75 l -0.28891,36.5 -6.75,0.29569 c -3.7125,0.16263 -6.76155,-0.0624 -6.77567,-0.5 -0.0141,-0.43763 -0.91169,-4.62069 -1.99458,-9.29569 -1.0829,-4.675 -3.99395,-17.5 -6.46899,-28.5 -2.47504,-11 -4.94877,-21.35 -5.49717,-23 -0.68133,-2.04996 -0.81519,7.21288 -0.42271,29.25 l 0.57439,32.25 h -4.58264 c -2.52044,0 -4.58819,-0.225 -4.59498,-0.5 z m 85.01725,0.25 c 0.003,-0.1375 2.03709,-9.7 4.52089,-21.25 2.4838,-11.55 5.42284,-25.275 6.53121,-30.5 1.10837,-5.225 2.81537,-13.1 3.79332,-17.5 l 1.7781,-8 h 4.86667 4.86667 l 1.38004,6.5 c 5.01234,23.60834 12.47939,57.40662 13.74955,62.2349 2.27617,8.6525 2.23308,8.7651 -3.35415,8.7651 h -4.8628 l -1.20988,-7.5 -1.20988,-7.5 h -9.29012 -9.29012 l -1.20988,7.5 -1.20988,7.5 h -4.92732 c -2.71003,0 -4.92512,-0.1125 -4.92242,-0.25 z m 28.66513,-25 c -0.30073,-1.2375 -1.27626,-6.3 -2.16785,-11.25 -2.50834,-13.92605 -4.56867,-23.89982 -5.033,-24.36416 -0.23216,-0.23215 -0.64022,0.20481 -0.90681,0.97103 C 953.1083,105.41191 947,139.2345 947,140.44367 c 0,0.30598 3.42378,0.55633 7.60841,0.55633 7.38554,0 7.59239,-0.0659 7.06162,-2.25 z"
       id="path1" />
  </g>
</svg>
