<svg version="1.1" id="Layer_1" xmlns="http://www.w3.org/2000/svg" xmlns:xlink="http://www.w3.org/1999/xlink" x="0px" y="0px"
	 width="100%" viewBox="0 0 976 349" enable-background="new 0 0 976 349" xml:space="preserve">
<path fill="#FEFEFE" opacity="1.000000" stroke="none" 
	d="
M977.000000,165.000000 
	C977.000000,226.639359 977.000000,288.278717 977.000000,350.000000 
	C716.642578,350.000000 456.285187,350.000000 195.620590,349.621552 
	C218.328598,346.584106 240.025528,339.726807 260.224060,328.393555 
	C293.534515,309.703339 318.234009,282.883423 334.201324,248.249954 
	C348.186371,217.916000 352.820953,186.049301 348.435883,152.872635 
	C343.820984,117.957291 329.881409,87.317970 306.754639,60.798328 
	C282.217316,32.661160 251.763275,14.350726 215.442459,5.834890 
	C207.677307,4.014261 199.816650,2.600955 192.000000,1.000000 
	C453.548004,1.000000 715.096008,1.000000 977.000000,1.000000 
	C977.000000,53.690212 977.000000,106.381226 976.636353,159.394196 
	C971.187866,136.413879 966.130676,113.105400 960.930603,89.828819 
	C960.688232,88.743980 959.270020,87.301422 958.226379,87.139282 
	C955.697266,86.746384 953.065918,87.011612 950.625183,87.011612 
	C944.960876,113.300163 939.454346,138.856308 933.875305,164.749023 
	C937.226379,164.749023 940.309387,164.749023 943.703369,164.749023 
	C944.623047,159.930023 945.537842,155.136383 946.471924,150.241837 
	C952.604431,150.241837 958.683289,150.241837 964.666138,150.241837 
	C965.602478,155.239685 966.482239,159.935776 967.431030,165.000000 
	C970.735291,165.000000 973.867676,165.000000 977.000000,165.000000 
M857.840210,148.512711 
	C857.840210,133.572815 857.840210,118.632904 857.840210,103.693008 
	C857.945923,103.613968 858.051697,103.534927 858.157410,103.455887 
	C862.816223,123.925858 867.474976,144.395828 872.086853,164.659393 
	C876.822693,164.659393 881.059448,164.659393 885.333618,164.659393 
	C885.333618,138.607376 885.333618,112.920982 885.333618,87.196091 
	C882.279358,87.196091 879.662537,87.196091 876.675293,87.196091 
	C876.675293,107.617897 876.675293,127.828194 876.675293,148.038498 
	C876.423279,148.064896 876.171204,148.091293 875.919189,148.117706 
	C871.189514,127.757286 866.459900,107.396866 861.788208,87.285995 
	C857.014893,87.285995 852.926331,87.285995 848.731934,87.285995 
	C848.731934,113.300117 848.731934,139.015274 848.731934,164.715424 
	C851.950500,164.715424 854.861694,164.715424 857.948914,164.715424 
	C857.948914,159.443039 857.948914,154.472427 857.840210,148.512711 
M771.351257,99.056915 
	C770.479126,95.069237 769.607056,91.081551 768.781311,87.305809 
	C764.269287,87.305809 760.172729,87.305809 756.063293,87.305809 
	C756.063293,113.331017 756.063293,139.037201 756.063293,164.634949 
	C759.192810,164.634949 761.918884,164.634949 764.488525,164.634949 
	C764.488525,144.148804 764.488525,124.053864 764.488525,103.958931 
	C764.696472,103.907890 764.904480,103.856857 765.112427,103.805817 
	C769.750549,124.060448 774.388733,144.315079 779.062927,164.727127 
	C783.731567,164.727127 787.996765,164.727127 792.116333,164.727127 
	C792.116333,138.719818 792.116333,112.994675 792.116333,87.276489 
	C789.103638,87.276489 786.354370,87.276489 783.658325,87.276489 
	C783.658325,107.748047 783.658325,127.934532 783.658325,148.121017 
	C783.381592,148.145264 783.104919,148.169495 782.828186,148.193741 
	C779.103333,132.075821 775.378418,115.957901 771.351257,99.056915 
M692.269226,97.198288 
	C691.438171,93.765991 690.607178,90.333702 689.898987,87.408707 
	C686.191406,87.408707 683.283936,87.408707 680.425293,87.408707 
	C674.899963,113.377731 669.458496,138.952469 664.013306,164.544617 
	C673.548523,165.877106 673.680298,165.776138 675.008240,157.125809 
	C675.355591,154.863007 675.794434,152.614243 676.210632,150.248932 
	C682.407593,150.248932 688.490295,150.248932 694.521606,150.248932 
	C695.460510,155.311859 696.350464,160.110825 697.203552,164.710785 
	C700.706665,164.710785 703.787415,164.710785 707.141052,164.710785 
	C704.655396,153.400452 702.256714,142.438232 699.835144,131.481049 
	C697.370422,120.328552 694.883118,109.181038 692.269226,97.198288 
M449.025543,99.818054 
	C447.819641,91.060196 444.428223,87.104248 435.996094,86.178993 
	C424.022156,84.865089 415.317657,89.695030 415.044373,103.743736 
	C414.910278,110.636528 417.404022,116.299995 422.021515,121.216629 
	C427.245270,126.778725 432.482574,132.329041 437.636993,137.954987 
	C441.473755,142.142761 442.214417,147.279541 440.674744,152.424652 
	C439.429413,156.586182 435.610870,157.889008 431.492523,157.936249 
	C427.398254,157.983231 424.083435,156.285370 423.223907,152.187546 
	C422.287201,147.721619 422.194519,143.078644 421.720917,138.384521 
	C418.899567,138.384521 416.182068,138.384521 412.762787,138.384521 
	C413.195374,143.731155 413.173676,148.727417 414.085052,153.547256 
	C415.619537,161.662628 422.813568,166.264755 432.575317,166.006210 
	C441.815063,165.761490 448.542542,160.530899 450.165588,152.737442 
	C452.384430,142.083054 447.802032,134.100632 440.713928,126.873100 
	C436.190125,122.260284 431.724091,117.565613 427.569550,112.624008 
	C424.414246,108.870934 423.420074,104.342934 424.876129,99.482079 
	C425.974365,95.815750 428.476746,94.028976 432.273102,94.090706 
	C436.082672,94.152641 439.259918,95.308525 439.987946,99.578400 
	C440.562805,102.950043 440.826202,106.374786 441.232452,109.814270 
	C443.795197,109.814270 446.217407,109.814270 449.036774,109.814270 
	C449.036774,106.650352 449.036774,103.693504 449.025543,99.818054 
M538.400513,159.805496 
	C533.117126,135.561142 527.833801,111.316788 522.580811,87.212029 
	C519.013428,87.212029 516.067261,87.212029 513.060303,87.212029 
	C507.487305,113.131180 501.959045,138.842285 496.373718,164.818695 
	C499.962952,164.818695 502.913239,164.818695 505.970703,164.818695 
	C506.947083,159.814178 507.890198,154.980225 508.841980,150.101776 
	C515.028381,150.101776 520.838257,150.101776 527.025635,150.101776 
	C527.934021,154.972763 528.835999,159.809143 529.754333,164.733627 
	C533.011719,164.733627 536.097473,164.733627 539.388062,164.733627 
	C539.147461,163.124802 538.952820,161.823181 538.400513,159.805496 
M615.893982,122.273468 
	C617.959045,110.652992 620.024048,99.032509 622.166321,86.977295 
	C620.360107,86.977295 619.196411,87.118553 618.078430,86.952354 
	C613.710327,86.303017 612.298767,87.928452 611.690125,92.506142 
	C609.541748,108.663765 606.725891,124.733604 604.085815,140.824036 
	C603.585083,143.875931 602.730957,146.869843 602.039856,149.890503 
	C601.617188,149.862579 601.194519,149.834641 600.771851,149.806717 
	C597.447693,128.949310 594.123596,108.091904 590.817322,87.346619 
	C587.401367,87.346619 584.506470,87.346619 581.159912,87.346619 
	C585.428772,110.151787 589.525452,132.534775 593.841370,154.875397 
	C595.871643,165.384872 596.062805,165.350769 606.815063,164.897949 
	C607.125488,164.884872 607.427185,164.662918 607.785156,164.517090 
	C610.411255,150.732117 613.042480,136.920258 615.893982,122.273468 
M512.468994,220.178558 
	C512.758850,213.596146 511.504150,207.082260 504.347076,205.516525 
	C497.551422,204.029861 490.299927,204.626785 483.304504,204.310013 
	C483.304504,225.522659 483.304504,245.760345 483.304504,266.176636 
	C485.818909,266.176636 487.979187,266.194366 490.139099,266.172577 
	C493.637543,266.137299 497.140900,266.179596 500.632904,266.004028 
	C507.559204,265.655823 512.567139,261.085968 513.085327,254.109039 
	C513.671997,246.209702 515.140320,237.859070 507.775543,233.817520 
	C509.480438,229.044495 510.915985,225.025558 512.468994,220.178558 
M417.750610,232.119156 
	C415.306152,243.305817 412.861694,254.492477 410.371002,265.890808 
	C413.437897,265.890808 415.683167,265.890808 418.076202,265.890808 
	C418.711029,262.382507 418.270691,258.124664 420.184784,256.156067 
	C422.028442,254.259888 426.301849,254.709747 429.513824,254.164597 
	C433.512726,253.485901 434.769897,255.174789 435.298370,259.224884 
	C436.281830,266.761627 436.672729,266.710632 444.346252,265.647095 
	C439.846619,245.343872 435.355560,225.079361 430.871765,204.847534 
	C428.143280,204.847534 425.876099,204.847534 423.448700,204.847534 
	C421.555328,213.853897 419.723267,222.568466 417.750610,232.119156 
M576.818604,265.656952 
	C584.770508,260.460571 583.692566,252.651291 583.135864,244.743988 
	C580.913269,244.743988 579.003906,244.743988 576.952698,244.743988 
	C576.695496,248.012558 576.462646,250.974625 576.229126,253.936646 
	C575.910095,257.982941 573.754272,260.537537 569.713684,260.754761 
	C565.736572,260.968597 562.656372,258.952271 562.565918,254.781235 
	C562.288330,241.991302 562.371765,229.193253 562.368469,216.398346 
	C562.368286,215.612793 562.808899,214.818512 563.085388,214.042908 
	C564.404053,210.343689 567.590759,209.141281 570.687195,210.236771 
	C572.829529,210.994720 574.953735,213.512115 575.805969,215.734268 
	C576.681030,218.015823 576.000122,220.894150 576.000122,223.738068 
	C578.633301,223.738068 580.690125,223.738068 583.033081,223.738068 
	C583.098999,217.717239 584.269348,211.657898 579.538086,207.078445 
	C571.860535,199.647232 556.632263,203.613647 555.603394,214.121277 
	C554.220520,228.244370 554.762451,242.622803 555.421814,256.847870 
	C555.707031,262.999451 560.936035,266.657501 567.231567,266.939026 
	C570.159546,267.069946 573.127014,266.319000 576.818604,265.656952 
z"/>
<path fill="#010101" opacity="1.000000" stroke="none" 
	d="
M191.531342,1.000000 
	C199.816650,2.600955 207.677307,4.014261 215.442459,5.834890 
	C251.763275,14.350726 282.217316,32.661160 306.754639,60.798328 
	C329.881409,87.317970 343.820984,117.957291 348.435883,152.872635 
	C352.820953,186.049301 348.186371,217.916000 334.201324,248.249954 
	C318.234009,282.883423 293.534515,309.703339 260.224060,328.393555 
	C240.025528,339.726807 218.328598,346.584106 195.156708,349.621552 
	C181.645767,350.000000 168.291550,350.000000 154.341309,349.627838 
	C134.407974,345.927551 115.566956,341.029236 97.968994,332.029510 
	C84.758209,325.273468 72.438637,317.252472 60.657440,306.938232 
	C62.371845,307.039886 63.238686,306.935364 64.009560,307.160065 
	C78.630493,311.421661 93.434685,312.089081 108.313637,308.993225 
	C128.631897,304.765564 145.548813,294.899506 152.689606,274.661072 
	C164.746902,240.488174 158.331238,209.366943 133.396210,182.545074 
	C120.907166,169.110977 108.372498,155.719299 95.972153,142.014862 
	C96.226036,139.783310 96.482521,137.844788 96.473404,135.907516 
	C96.464462,134.004349 96.197914,132.101120 95.993225,130.203445 
	C95.981743,130.097000 95.504417,130.040817 95.170982,129.938965 
	C94.503174,131.178360 93.848396,132.393585 92.918854,134.118729 
	C90.543983,130.016434 88.490906,126.444374 86.404205,122.892059 
	C86.076462,122.334122 85.582512,121.412331 85.188400,121.424171 
	C79.393066,121.598274 79.809845,117.680641 80.641144,112.958961 
	C77.316635,114.153809 74.771446,115.068558 71.990067,115.722153 
	C64.157883,104.579865 61.871880,92.666473 63.845001,79.543747 
	C67.172470,57.413609 90.474655,46.656422 109.573723,58.671223 
	C117.587769,63.712688 119.866516,71.941208 120.841263,80.327820 
	C122.004524,90.336266 121.968018,100.484169 122.456612,110.683861 
	C132.425491,110.683861 142.605576,110.683861 152.028290,110.683861 
	C152.028290,97.820381 152.309875,85.345795 151.970123,72.888153 
	C151.244751,46.290173 133.990982,28.263172 107.390648,25.943291 
	C101.239609,25.406845 95.074379,25.033081 88.519516,24.555597 
	C105.171417,14.963947 122.428040,8.198899 140.942230,4.698729 
	C146.656982,3.618335 152.315659,2.241242 158.000000,0.999999 
	C169.020889,1.000000 180.041794,1.000000 191.531342,1.000000 
z"/>
<path fill="#FDFDFD" opacity="1.000000" stroke="none" 
	d="
M157.531342,0.999999 
	C152.315659,2.241242 146.656982,3.618335 140.942230,4.698729 
	C122.428040,8.198899 105.171417,14.963947 88.519516,24.555597 
	C95.074379,25.033081 101.239609,25.406845 107.390648,25.943291 
	C133.990982,28.263172 151.244751,46.290173 151.970123,72.888153 
	C152.309875,85.345795 152.028290,97.820381 152.028290,110.683861 
	C142.605576,110.683861 132.425491,110.683861 122.456612,110.683861 
	C121.968018,100.484169 122.004524,90.336266 120.841263,80.327820 
	C119.866516,71.941208 117.587769,63.712688 109.573723,58.671223 
	C90.474655,46.656422 67.172470,57.413609 63.845001,79.543747 
	C61.871880,92.666473 64.157883,104.579865 72.053482,116.047333 
	C80.188217,125.191933 88.023338,133.750183 95.858459,142.308426 
	C108.372498,155.719299 120.907166,169.110977 133.396210,182.545074 
	C158.331238,209.366943 164.746902,240.488174 152.689606,274.661072 
	C145.548813,294.899506 128.631897,304.765564 108.313637,308.993225 
	C93.434685,312.089081 78.630493,311.421661 64.009560,307.160065 
	C63.238686,306.935364 62.371845,307.039886 60.657440,306.938232 
	C72.438637,317.252472 84.758209,325.273468 97.968994,332.029510 
	C115.566956,341.029236 134.407974,345.927551 153.872650,349.627838 
	C103.072281,350.000000 52.144569,350.000000 1.000000,350.000000 
	C1.000000,298.312653 1.000000,246.624985 1.381401,194.590851 
	C7.777491,226.446487 16.633041,252.876419 23.541092,260.018463 
	C23.541092,244.035461 23.541092,227.645203 23.541092,211.184860 
	C34.175892,211.184860 44.898949,211.184860 55.361736,211.184860 
	C55.908257,224.907837 56.014065,238.363190 57.139660,251.732681 
	C57.803055,259.612305 60.158005,267.553833 66.202499,273.170380 
	C80.364761,286.329956 108.278610,283.424042 118.846207,267.306793 
	C127.978661,253.378372 126.013855,238.536896 119.547997,224.033981 
	C113.495575,210.458389 101.904182,201.372925 92.142273,190.832489 
	C77.708656,175.247787 62.831932,160.065353 48.655418,144.253006 
	C35.736954,129.843887 29.391577,112.691322 29.965332,93.161026 
	C30.084919,89.090324 29.982702,85.013100 29.982702,79.606468 
	C17.675472,98.727196 9.448880,118.034775 5.002318,138.938828 
	C3.651553,145.289001 2.333200,151.646088 1.000000,158.000000 
	C1.000000,105.739662 1.000000,53.479317 1.000000,1.000000 
	C53.020691,1.000000 105.041687,1.000000 157.531342,0.999999 
z"/>
<path fill="#030303" opacity="1.000000" stroke="none" 
	d="
M1.000000,158.468658 
	C2.333200,151.646088 3.651553,145.289001 5.002318,138.938828 
	C9.448880,118.034775 17.675472,98.727196 29.982702,79.606468 
	C29.982702,85.013100 30.084919,89.090324 29.965332,93.161026 
	C29.391577,112.691322 35.736954,129.843887 48.655418,144.253006 
	C62.831932,160.065353 77.708656,175.247787 92.142273,190.832489 
	C101.904182,201.372925 113.495575,210.458389 119.547997,224.033981 
	C126.013855,238.536896 127.978661,253.378372 118.846207,267.306793 
	C108.278610,283.424042 80.364761,286.329956 66.202499,273.170380 
	C60.158005,267.553833 57.803055,259.612305 57.139660,251.732681 
	C56.014065,238.363190 55.908257,224.907837 55.361736,211.184860 
	C44.898949,211.184860 34.175892,211.184860 23.541092,211.184860 
	C23.541092,227.645203 23.541092,244.035461 23.541092,260.018463 
	C16.633041,252.876419 7.777491,226.446487 1.381401,194.122192 
	C1.000000,182.312439 1.000000,170.624878 1.000000,158.468658 
z"/>
<path fill="#0A0A0A" opacity="1.000000" stroke="none" 
	d="
M977.000000,164.583344 
	C973.867676,165.000000 970.735291,165.000000 967.431030,165.000000 
	C966.482239,159.935776 965.602478,155.239685 964.666138,150.241837 
	C958.683289,150.241837 952.604431,150.241837 946.471924,150.241837 
	C945.537842,155.136383 944.623047,159.930023 943.703369,164.749023 
	C940.309387,164.749023 937.226379,164.749023 933.875305,164.749023 
	C939.454346,138.856308 944.960876,113.300163 950.625183,87.011612 
	C953.065918,87.011612 955.697266,86.746384 958.226379,87.139282 
	C959.270020,87.301422 960.688232,88.743980 960.930603,89.828819 
	C966.130676,113.105400 971.187866,136.413879 976.636353,159.858093 
	C977.000000,161.388885 977.000000,162.777786 977.000000,164.583344 
M956.681274,108.015770 
	C956.340454,107.003105 955.999634,105.990448 955.658813,104.977783 
	C955.304077,104.969559 954.949341,104.961334 954.594604,104.953110 
	C952.401184,117.096741 950.207703,129.240372 947.962402,141.671173 
	C953.341370,141.671173 957.921082,141.671173 962.947449,141.671173 
	C960.871826,130.509399 958.856079,119.669579 956.681274,108.015770 
z"/>
<path fill="#0A0A0A" opacity="1.000000" stroke="none" 
	d="
M857.894531,149.007263 
	C857.948914,154.472427 857.948914,159.443039 857.948914,164.715424 
	C854.861694,164.715424 851.950500,164.715424 848.731934,164.715424 
	C848.731934,139.015274 848.731934,113.300117 848.731934,87.285995 
	C852.926331,87.285995 857.014893,87.285995 861.788208,87.285995 
	C866.459900,107.396866 871.189514,127.757286 875.919189,148.117706 
	C876.171204,148.091293 876.423279,148.064896 876.675293,148.038498 
	C876.675293,127.828194 876.675293,107.617897 876.675293,87.196091 
	C879.662537,87.196091 882.279358,87.196091 885.333618,87.196091 
	C885.333618,112.920982 885.333618,138.607376 885.333618,164.659393 
	C881.059448,164.659393 876.822693,164.659393 872.086853,164.659393 
	C867.474976,144.395828 862.816223,123.925858 858.157410,103.455887 
	C858.051697,103.534927 857.945923,103.613968 857.840210,103.693008 
	C857.840210,118.632904 857.840210,133.572815 857.894531,149.007263 
z"/>
<path fill="#080808" opacity="1.000000" stroke="none" 
	d="
M771.502441,99.448448 
	C775.378418,115.957901 779.103333,132.075821 782.828186,148.193741 
	C783.104919,148.169495 783.381592,148.145264 783.658325,148.121017 
	C783.658325,127.934532 783.658325,107.748047 783.658325,87.276489 
	C786.354370,87.276489 789.103638,87.276489 792.116333,87.276489 
	C792.116333,112.994675 792.116333,138.719818 792.116333,164.727127 
	C787.996765,164.727127 783.731567,164.727127 779.062927,164.727127 
	C774.388733,144.315079 769.750549,124.060448 765.112427,103.805817 
	C764.904480,103.856857 764.696472,103.907890 764.488525,103.958931 
	C764.488525,124.053864 764.488525,144.148804 764.488525,164.634949 
	C761.918884,164.634949 759.192810,164.634949 756.063293,164.634949 
	C756.063293,139.037201 756.063293,113.331017 756.063293,87.305809 
	C760.172729,87.305809 764.269287,87.305809 768.781311,87.305809 
	C769.607056,91.081551 770.479126,95.069237 771.502441,99.448448 
z"/>
<path fill="#090909" opacity="1.000000" stroke="none" 
	d="
M692.337524,97.614815 
	C694.883118,109.181038 697.370422,120.328552 699.835144,131.481049 
	C702.256714,142.438232 704.655396,153.400452 707.141052,164.710785 
	C703.787415,164.710785 700.706665,164.710785 697.203552,164.710785 
	C696.350464,160.110825 695.460510,155.311859 694.521606,150.248932 
	C688.490295,150.248932 682.407593,150.248932 676.210632,150.248932 
	C675.794434,152.614243 675.355591,154.863007 675.008240,157.125809 
	C673.680298,165.776138 673.548523,165.877106 664.013306,164.544617 
	C669.458496,138.952469 674.899963,113.377731 680.425293,87.408707 
	C683.283936,87.408707 686.191406,87.408707 689.898987,87.408707 
	C690.607178,90.333702 691.438171,93.765991 692.337524,97.614815 
M682.072327,117.631615 
	C680.698120,125.526756 679.323853,133.421906 677.920898,141.482239 
	C683.132996,141.482239 687.797424,141.482239 692.894836,141.482239 
	C690.461121,129.029541 688.126343,117.083092 685.791626,105.136642 
	C685.339233,105.190140 684.886780,105.243629 684.434387,105.297127 
	C683.701782,109.125107 682.969177,112.953094 682.072327,117.631615 
z"/>
<path fill="#0C0C0C" opacity="1.000000" stroke="none" 
	d="
M449.031158,100.277359 
	C449.036774,103.693504 449.036774,106.650352 449.036774,109.814270 
	C446.217407,109.814270 443.795197,109.814270 441.232452,109.814270 
	C440.826202,106.374786 440.562805,102.950043 439.987946,99.578400 
	C439.259918,95.308525 436.082672,94.152641 432.273102,94.090706 
	C428.476746,94.028976 425.974365,95.815750 424.876129,99.482079 
	C423.420074,104.342934 424.414246,108.870934 427.569550,112.624008 
	C431.724091,117.565613 436.190125,122.260284 440.713928,126.873100 
	C447.802032,134.100632 452.384430,142.083054 450.165588,152.737442 
	C448.542542,160.530899 441.815063,165.761490 432.575317,166.006210 
	C422.813568,166.264755 415.619537,161.662628 414.085052,153.547256 
	C413.173676,148.727417 413.195374,143.731155 412.762787,138.384521 
	C416.182068,138.384521 418.899567,138.384521 421.720917,138.384521 
	C422.194519,143.078644 422.287201,147.721619 423.223907,152.187546 
	C424.083435,156.285370 427.398254,157.983231 431.492523,157.936249 
	C435.610870,157.889008 439.429413,156.586182 440.674744,152.424652 
	C442.214417,147.279541 441.473755,142.142761 437.636993,137.954987 
	C432.482574,132.329041 427.245270,126.778725 422.021515,121.216629 
	C417.404022,116.299995 414.910278,110.636528 415.044373,103.743736 
	C415.317657,89.695030 424.022156,84.865089 435.996094,86.178993 
	C444.428223,87.104248 447.819641,91.060196 449.031158,100.277359 
z"/>
<path fill="#0A0A0A" opacity="1.000000" stroke="none" 
	d="
M538.579346,160.163528 
	C538.952820,161.823181 539.147461,163.124802 539.388062,164.733627 
	C536.097473,164.733627 533.011719,164.733627 529.754333,164.733627 
	C528.835999,159.809143 527.934021,154.972763 527.025635,150.101776 
	C520.838257,150.101776 515.028381,150.101776 508.841980,150.101776 
	C507.890198,154.980225 506.947083,159.814178 505.970703,164.818695 
	C502.913239,164.818695 499.962952,164.818695 496.373718,164.818695 
	C501.959045,138.842285 507.487305,113.131180 513.060303,87.212029 
	C516.067261,87.212029 519.013428,87.212029 522.580811,87.212029 
	C527.833801,111.316788 533.117126,135.561142 538.579346,160.163528 
M524.228943,136.164093 
	C522.325989,125.881653 520.423035,115.599213 518.520081,105.316780 
	C517.963989,105.351410 517.407898,105.386040 516.851807,105.420670 
	C514.749817,117.349419 512.647827,129.278168 510.479828,141.581512 
	C515.772949,141.581512 520.166443,141.581512 525.132812,141.581512 
	C524.894470,139.795273 524.706543,138.386841 524.228943,136.164093 
z"/>
<path fill="#0C0C0C" opacity="1.000000" stroke="none" 
	d="
M615.783813,122.690926 
	C613.042480,136.920258 610.411255,150.732117 607.785156,164.517090 
	C607.427185,164.662918 607.125488,164.884872 606.815063,164.897949 
	C596.062805,165.350769 595.871643,165.384872 593.841370,154.875397 
	C589.525452,132.534775 585.428772,110.151787 581.159912,87.346619 
	C584.506470,87.346619 587.401367,87.346619 590.817322,87.346619 
	C594.123596,108.091904 597.447693,128.949310 600.771851,149.806717 
	C601.194519,149.834641 601.617188,149.862579 602.039856,149.890503 
	C602.730957,146.869843 603.585083,143.875931 604.085815,140.824036 
	C606.725891,124.733604 609.541748,108.663765 611.690125,92.506142 
	C612.298767,87.928452 613.710327,86.303017 618.078430,86.952354 
	C619.196411,87.118553 620.360107,86.977295 622.166321,86.977295 
	C620.024048,99.032509 617.959045,110.652992 615.783813,122.690926 
z"/>
<path fill="#0D0D0D" opacity="1.000000" stroke="none" 
	d="
M512.410278,220.592590 
	C510.915985,225.025558 509.480438,229.044495 507.775543,233.817520 
	C515.140320,237.859070 513.671997,246.209702 513.085327,254.109039 
	C512.567139,261.085968 507.559204,265.655823 500.632904,266.004028 
	C497.140900,266.179596 493.637543,266.137299 490.139099,266.172577 
	C487.979187,266.194366 485.818909,266.176636 483.304504,266.176636 
	C483.304504,245.760345 483.304504,225.522659 483.304504,204.310013 
	C490.299927,204.626785 497.551422,204.029861 504.347076,205.516525 
	C511.504150,207.082260 512.758850,213.596146 512.410278,220.592590 
M497.742401,236.640717 
	C495.510925,236.640717 493.279419,236.640717 491.033325,236.640717 
	C491.033325,244.468201 491.033325,251.823776 491.033325,259.107697 
	C502.921814,261.074768 506.971771,257.444214 506.000092,246.061630 
	C505.915924,245.076019 505.704010,244.100983 505.544250,243.122208 
	C504.897369,239.159744 502.716095,236.882156 497.742401,236.640717 
M490.358124,225.153290 
	C490.457703,226.608994 490.557312,228.064697 490.652130,229.450348 
	C502.272339,231.375351 506.257050,228.062363 505.089172,217.734863 
	C504.518066,212.684631 501.003510,210.749695 493.752686,211.088928 
	C488.442596,211.337372 490.824707,215.278625 490.420288,217.752747 
	C490.076111,219.858109 490.348541,222.064270 490.358124,225.153290 
z"/>
<path fill="#0D0D0D" opacity="1.000000" stroke="none" 
	d="
M417.820923,231.701080 
	C419.723267,222.568466 421.555328,213.853897 423.448700,204.847534 
	C425.876099,204.847534 428.143280,204.847534 430.871765,204.847534 
	C435.355560,225.079361 439.846619,245.343872 444.346252,265.647095 
	C436.672729,266.710632 436.281830,266.761627 435.298370,259.224884 
	C434.769897,255.174789 433.512726,253.485901 429.513824,254.164597 
	C426.301849,254.709747 422.028442,254.259888 420.184784,256.156067 
	C418.270691,258.124664 418.711029,262.382507 418.076202,265.890808 
	C415.683167,265.890808 413.437897,265.890808 410.371002,265.890808 
	C412.861694,254.492477 415.306152,243.305817 417.820923,231.701080 
M428.939667,225.588623 
	C428.429108,223.704666 427.918549,221.820724 427.407959,219.936783 
	C427.066376,220.014801 426.724762,220.092819 426.383148,220.170853 
	C424.798859,229.205933 423.214569,238.241013 421.612518,247.377258 
	C425.816345,247.377258 429.300171,247.377258 433.135284,247.377258 
	C431.693359,240.020126 430.361237,233.223373 428.939667,225.588623 
z"/>
<path fill="#111111" opacity="1.000000" stroke="none" 
	d="
M576.447571,265.812378 
	C573.127014,266.319000 570.159546,267.069946 567.231567,266.939026 
	C560.936035,266.657501 555.707031,262.999451 555.421814,256.847870 
	C554.762451,242.622803 554.220520,228.244370 555.603394,214.121277 
	C556.632263,203.613647 571.860535,199.647232 579.538086,207.078445 
	C584.269348,211.657898 583.098999,217.717239 583.033081,223.738068 
	C580.690125,223.738068 578.633301,223.738068 576.000122,223.738068 
	C576.000122,220.894150 576.681030,218.015823 575.805969,215.734268 
	C574.953735,213.512115 572.829529,210.994720 570.687195,210.236771 
	C567.590759,209.141281 564.404053,210.343689 563.085388,214.042908 
	C562.808899,214.818512 562.368286,215.612793 562.368469,216.398346 
	C562.371765,229.193253 562.288330,241.991302 562.565918,254.781235 
	C562.656372,258.952271 565.736572,260.968597 569.713684,260.754761 
	C573.754272,260.537537 575.910095,257.982941 576.229126,253.936646 
	C576.462646,250.974625 576.695496,248.012558 576.952698,244.743988 
	C579.003906,244.743988 580.913269,244.743988 583.135864,244.743988 
	C583.692566,252.651291 584.770508,260.460571 576.447571,265.812378 
z"/>
<path fill="#0E0E0E" opacity="1.000000" stroke="none" 
	d="
M95.972153,142.014862 
	C88.023338,133.750183 80.188217,125.191933 72.289680,116.308495 
	C74.771446,115.068558 77.316635,114.153809 80.641144,112.958961 
	C79.809845,117.680641 79.393066,121.598274 85.188400,121.424171 
	C85.582512,121.412331 86.076462,122.334122 86.404205,122.892059 
	C88.490906,126.444374 90.543983,130.016434 92.918854,134.118729 
	C93.848396,132.393585 94.503174,131.178360 95.170982,129.938965 
	C95.504417,130.040817 95.981743,130.097000 95.993225,130.203445 
	C96.197914,132.101120 96.464462,134.004349 96.473404,135.907516 
	C96.482521,137.844788 96.226036,139.783310 95.972153,142.014862 
M85.297729,125.426262 
	C85.011826,125.699936 84.723167,125.971069 84.455170,126.261276 
	C84.448151,126.268883 84.666359,126.484474 84.779533,126.603073 
	C85.065163,126.329361 85.350792,126.055641 85.297729,125.426262 
z"/>
<path fill="#F3F3F3" opacity="1.000000" stroke="none" 
	d="
M956.760803,108.422760 
	C958.856079,119.669579 960.871826,130.509399 962.947449,141.671173 
	C957.921082,141.671173 953.341370,141.671173 947.962402,141.671173 
	C950.207703,129.240372 952.401184,117.096741 954.594604,104.953110 
	C954.949341,104.961334 955.304077,104.969559 955.658813,104.977783 
	C955.999634,105.990448 956.340454,107.003105 956.760803,108.422760 
z"/>
<path fill="#F1F1F1" opacity="1.000000" stroke="none" 
	d="
M682.154419,117.206345 
	C682.969177,112.953094 683.701782,109.125107 684.434387,105.297127 
	C684.886780,105.243629 685.339233,105.190140 685.791626,105.136642 
	C688.126343,117.083092 690.461121,129.029541 692.894836,141.482239 
	C687.797424,141.482239 683.132996,141.482239 677.920898,141.482239 
	C679.323853,133.421906 680.698120,125.526756 682.154419,117.206345 
z"/>
<path fill="#F2F2F2" opacity="1.000000" stroke="none" 
	d="
M524.373779,136.571259 
	C524.706543,138.386841 524.894470,139.795273 525.132812,141.581512 
	C520.166443,141.581512 515.772949,141.581512 510.479828,141.581512 
	C512.647827,129.278168 514.749817,117.349419 516.851807,105.420670 
	C517.407898,105.386040 517.963989,105.351410 518.520081,105.316780 
	C520.423035,115.599213 522.325989,125.881653 524.373779,136.571259 
z"/>
<path fill="#F7F7F7" opacity="1.000000" stroke="none" 
	d="
M498.152832,236.707275 
	C502.716095,236.882156 504.897369,239.159744 505.544250,243.122208 
	C505.704010,244.100983 505.915924,245.076019 506.000092,246.061630 
	C506.971771,257.444214 502.921814,261.074768 491.033325,259.107697 
	C491.033325,251.823776 491.033325,244.468201 491.033325,236.640717 
	C493.279419,236.640717 495.510925,236.640717 498.152832,236.707275 
z"/>
<path fill="#F0F0F0" opacity="1.000000" stroke="none" 
	d="
M490.353149,224.689560 
	C490.348541,222.064270 490.076111,219.858109 490.420288,217.752747 
	C490.824707,215.278625 488.442596,211.337372 493.752686,211.088928 
	C501.003510,210.749695 504.518066,212.684631 505.089172,217.734863 
	C506.257050,228.062363 502.272339,231.375351 490.652130,229.450348 
	C490.557312,228.064697 490.457703,226.608994 490.353149,224.689560 
z"/>
<path fill="#EDEDED" opacity="1.000000" stroke="none" 
	d="
M428.984406,226.007629 
	C430.361237,233.223373 431.693359,240.020126 433.135284,247.377258 
	C429.300171,247.377258 425.816345,247.377258 421.612518,247.377258 
	C423.214569,238.241013 424.798859,229.205933 426.383148,220.170853 
	C426.724762,220.092819 427.066376,220.014801 427.407959,219.936783 
	C427.918549,221.820724 428.429108,223.704666 428.984406,226.007629 
z"/>
<path fill="#010101" opacity="1.000000" stroke="none" 
	d="
M85.467072,125.604095 
	C85.350792,126.055641 85.065163,126.329361 84.779533,126.603073 
	C84.666359,126.484474 84.448151,126.268883 84.455170,126.261276 
	C84.723167,125.971069 85.011826,125.699936 85.467072,125.604095 
z"/>
</svg>